<svg xmlns="http://www.w3.org/2000/svg" class="svg-inline--fa fa-angle-double-left fa-w-14 fa-3x" role="img" aria-hidden="true" viewBox="0 0 448 512" data-prefix="fas" data-icon="angle-double-left"><path class="" fill="currentColor" d="M 223.7 239 l 136 -136 c 9.4 -9.4 24.6 -9.4 33.9 0 l 22.6 22.6 c 9.4 9.4 9.4 24.6 0 33.9 L 319.9 256 l 96.4 96.4 c 9.4 9.4 9.4 24.6 0 33.9 L 393.7 409 c -9.4 9.4 -24.6 9.4 -33.9 0 l -136 -136 c -9.5 -9.4 -9.5 -24.6 -0.1 -34 Z m -192 34 l 136 136 c 9.4 9.4 24.6 9.4 33.9 0 l 22.6 -22.6 c 9.4 -9.4 9.4 -24.6 0 -33.9 L 127.9 256 l 96.4 -96.4 c 9.4 -9.4 9.4 -24.6 0 -33.9 L 201.7 103 c -9.4 -9.4 -24.6 -9.4 -33.9 0 l -136 136 c -9.5 9.4 -9.5 24.6 -0.1 34 Z" /></svg>