<svg id="レイヤー_2" data-name="レイヤー 2" xmlns="http://www.w3.org/2000/svg" viewBox="0 0 121.16 42.23"><defs><style>.cls-1{fill:none;stroke:#ff0;stroke-miterlimit:10;}</style></defs><title>tokoro</title><path class="cls-1" d="M147.5,28.5s1-7,0-8-5-5-8-3-7,3-6,6a66.59,66.59,0,0,0,3,7l11,12v10s-4,4-6,4-8-3-8-3v-9" transform="translate(-132.84 -16)"/><path class="cls-1" d="M159.5,56.5l1.44-10.91L164.5,18.5c6,1,8,0,8,0l5,38" transform="translate(-132.84 -16)"/><line class="cls-1" x1="27.84" y1="31.51" x2="43.47" y2="31.51"/><polyline class="cls-1" points="56.66 2.5 56.66 39.5 66.66 39.5"/><path class="cls-1" d="M216.5,16.5s-4,0-5,2a18.66,18.66,0,0,1-3,4v30s4,4,8,4,10-4,10-4v-31l-8-5" transform="translate(-132.84 -16)"/><line class="cls-1" x1="105.66" y1="2.5" x2="105.66" y2="40.5"/><polyline class="cls-1" points="106.66 2.5 120.66 39.5 120.66 2.5"/><path class="cls-1" d="M189.5,33.36" transform="translate(-132.84 -16)"/></svg>